<svg width="512" height="512" viewBox="0 0 512 512" fill="none" xmlns="http://www.w3.org/2000/svg">
  <!-- 배경 원 - 보라색 그라데이션 -->
  <circle cx="256" cy="256" r="256" fill="url(#bgGradient)"/>
  
  <!-- 바다 물결 3 (가장 뒤, 연한) -->
  <path d="M0 280 
    Q80 250 160 280 
    Q240 310 320 280 
    Q400 250 480 280 
    Q512 290 512 290
    L512 512 L0 512 Z" 
    fill="url(#waveGradient1)" opacity="0.5"/>
  
  <!-- 바다 물결 2 (중간) -->
  <path d="M0 320 
    Q100 360 200 320 
    Q300 280 400 320 
    Q450 340 512 310
    L512 512 L0 512 Z" 
    fill="url(#waveGradient2)" opacity="0.7"/>
  
  <!-- 바다 물결 1 (가장 앞, 진한) -->
  <path d="M0 380 
    Q80 340 160 380 
    Q240 420 320 380 
    Q400 340 512 390
    L512 512 L0 512 Z" 
    fill="url(#waveGradient3)" opacity="0.85"/>
  
  <!-- 범선 그룹 -->
  <g transform="translate(256, 260)">
    <!-- 배 몸체 -->
    <path d="M-70 40 L-50 80 L50 80 L70 40 Z" fill="white" opacity="0.95"/>
    
    <!-- 돛대 -->
    <rect x="-3" y="-120" width="6" height="160" fill="white" opacity="0.9"/>
    
    <!-- 메인 돛 (삼각형) -->
    <path d="M0 -110 L0 30 L-65 30 Z" fill="white" opacity="0.95"/>
    
    <!-- 메인 돛 라인 -->
    <path d="M0 -110 L0 30 L-65 30 Z" stroke="#d8b4fe" stroke-width="2" fill="none" opacity="0.5"/>
    
    <!-- 작은 뒤쪽 돛 -->
    <path d="M0 -80 L0 20 L40 20 Z" fill="white" opacity="0.9"/>
    
    <!-- @ 깃발 -->
    <g transform="translate(3, -120)">
      <!-- 깃발 배경 -->
      <path d="M0 0 L50 10 L50 40 L0 30 Z" fill="white" opacity="0.95"/>
      
      <!-- @ 기호 -->
      <text x="25" y="28" font-family="Arial, sans-serif" font-size="24" font-weight="500" fill="#a78bfa" text-anchor="middle">@</text>
    </g>
  </g>
  
  <!-- 그라데이션 정의 -->
  <defs>
    <!-- 배경 그라데이션 -->
    <linearGradient id="bgGradient" x1="0%" y1="0%" x2="0%" y2="100%">
      <stop offset="0%" style="stop-color:#c4b5fd"/>
      <stop offset="50%" style="stop-color:#a78bfa"/>
      <stop offset="100%" style="stop-color:#8b5cf6"/>
    </linearGradient>
    
    <!-- 물결 그라데이션 1 -->
    <linearGradient id="waveGradient1" x1="0%" y1="0%" x2="0%" y2="100%">
      <stop offset="0%" style="stop-color:#a78bfa"/>
      <stop offset="100%" style="stop-color:#7c3aed"/>
    </linearGradient>
    
    <!-- 물결 그라데이션 2 -->
    <linearGradient id="waveGradient2" x1="0%" y1="0%" x2="0%" y2="100%">
      <stop offset="0%" style="stop-color:#8b5cf6"/>
      <stop offset="100%" style="stop-color:#6d28d9"/>
    </linearGradient>
    
    <!-- 물결 그라데이션 3 -->
    <linearGradient id="waveGradient3" x1="0%" y1="0%" x2="0%" y2="100%">
      <stop offset="0%" style="stop-color:#7c3aed"/>
      <stop offset="100%" style="stop-color:#5b21b6"/>
    </linearGradient>
  </defs>
</svg>
